<svg id="Your_design" data-name="Your design" xmlns="http://www.w3.org/2000/svg" xmlns:xlink="http://www.w3.org/1999/xlink" viewBox="0 0 1060.27 401.59"><defs><style>.cls-1{fill:#6e8496;}.cls-2{fill:url(#radial-gradient);}.cls-3{fill:url(#radial-gradient-2);}.cls-4{fill:url(#radial-gradient-4);}</style><radialGradient id="radial-gradient" cx="173.46" cy="290.29" r="146.09" gradientUnits="userSpaceOnUse"><stop offset="0" stop-color="#61ccf2"/><stop offset="0.53" stop-color="#15a1db"/><stop offset="1" stop-color="#5373b8"/></radialGradient><radialGradient id="radial-gradient-2" cx="173.89" cy="112.15" r="175.77" xlink:href="#radial-gradient"/><radialGradient id="radial-gradient-4" cx="174.02" cy="112.15" r="175.69" xlink:href="#radial-gradient"/></defs><path class="cls-1" d="M851.69,407.74H759.63v-8.09c18.58-22.74,71.29-87,79.16-96.44H762v-8.09h87.26v8.09C830.48,326,778,390,770.12,399.65h81.57Z" transform="translate(-326.11 -153.15)"/><path class="cls-1" d="M963,415.61c0,27.78-19.24,47.24-47,47.24-23.61,0-41.55-15.09-45.92-37.18h8.53c3.94,17.28,18.59,29.09,37.39,29.09,23.19,0,38.71-15.75,38.71-39.15V389.15c-7.65,13.12-21.43,21.22-39.14,21.22-27.34,0-47.24-19.9-47.24-47.24v-68h8.09v68c0,22.74,16.62,39.14,39.15,39.14,22.74,0,39.14-16.4,39.14-39.14v-68H963Z" transform="translate(-326.11 -153.15)"/><path class="cls-1" d="M1088.09,407.74H1080v-68c0-24.71-13.33-39.58-38-39.58-22.74,0-40.45,16.84-40.45,39.58v68H993.4V295.12h8.09v19c8.09-13.34,22.74-21.86,40.67-21.86,28.87,0,45.93,18.15,45.93,47.45Z" transform="translate(-326.11 -153.15)"/><path class="cls-1" d="M1222.14,404.68c0,34.77-22.31,58.17-55.55,58.17-26.46,0-45.7-13.78-52.48-37h8.53c6.34,18.15,22.3,28.87,43.95,28.87,28.87,0,47.46-19.68,47.46-50.08V381.5a52.86,52.86,0,0,1-47.89,29.09c-31.06,0-56.21-26.47-56.21-58.83,0-32.81,25.15-59.48,56.21-59.48a52.66,52.66,0,0,1,47.89,29.3V295.12h8.09Zm-56-104.09c-26.68,0-48.11,23-48.11,51.17,0,27.77,21.43,50.51,48.11,50.51,27.77,0,47.89-21.21,47.89-50.51C1214.05,322,1193.93,300.59,1166.16,300.59Z" transform="translate(-326.11 -153.15)"/><path class="cls-1" d="M1261.72,407.74h-8.09V245h8.09Z" transform="translate(-326.11 -153.15)"/><path class="cls-1" d="M1386.37,415.61c0,27.78-19.24,47.24-47,47.24-23.61,0-41.54-15.09-45.92-37.18H1302c3.94,17.28,18.59,29.09,37.39,29.09,23.19,0,38.71-15.75,38.71-39.15V389.15c-7.65,13.12-21.43,21.22-39.14,21.22-27.34,0-47.24-19.9-47.24-47.24v-68h8.09v68c0,22.74,16.62,39.14,39.15,39.14,22.74,0,39.14-16.4,39.14-39.14v-68h8.31Z" transform="translate(-326.11 -153.15)"/><polygon class="cls-2" points="108.78 255.75 78.79 273.39 173.89 328.3 347.79 227.9 347.79 192.94 173.89 293.34 108.78 255.75"/><polygon class="cls-3" points="173.89 42.77 323.76 129.3 140.21 237.27 173.89 256.72 347.79 156.32 347.79 100.4 173.89 0 0 100.4 0 143.17 173.89 42.77"/><polygon class="cls-2" points="173.89 358.82 26.3 273.61 207.58 166.97 173.89 147.52 0 247.91 0 301.19 173.89 401.59 347.79 301.19 347.79 258.42 173.89 358.82"/><polygon class="cls-4" points="239 148.48 271.26 129.51 173.89 73.29 0 173.69 0 211.29 173.89 110.89 239 148.48"/></svg>